<svg xmlns="http://www.w3.org/2000/svg" style="display:none;"><defs><symbol id="fh-close" viewBox="0 0 24 24"><path d="M13.232 12l7.513 7.513a.871.871 0 0 1-1.232 1.232L12 13.232l-7.513 7.513a.871.871 0 0 1-1.232-1.232L10.768 12 3.255 4.487a.871.871 0 1 1 1.232-1.232L12 10.768l7.513-7.513a.871.871 0 1 1 1.232 1.232L13.232 12z"/></symbol><symbol id="fh-arrow" viewBox="0 0 24 24"><path d="M15.083 12l-6.85-6.678a.76.76 0 0 1 0-1.095.809.809 0 0 1 1.123 0l7.411 7.226a.76.76 0 0 1 0 1.094l-7.411 7.226a.809.809 0 0 1-1.123 0 .76.76 0 0 1 0-1.095L15.083 12z"/></symbol><symbol id="fh-user" viewBox="0 0 24 24"><path d="M12 12.574c-2.363 0-4.28-1.972-4.28-4.404v-.766C7.72 4.972 9.638 3 12 3c2.363 0 4.28 1.972 4.28 4.404v.766c0 2.432-1.917 4.404-4.28 4.404zm8 6.25v1.602c0 .317-.25.574-.558.574H4.558A.566.566 0 0 1 4 20.426v-1.603c0-1.64 1.061-3.078 2.595-3.508 1.83-.514 3.673-.826 5.405-.826 1.732 0 3.575.312 5.405.826 1.534.43 2.595 1.868 2.595 3.508z"/></symbol></defs></svg>
